<svg width="23" height="23" viewBox="0 0 23 23" fill="none" xmlns="http://www.w3.org/2000/svg">
<path d="M11.5 22.75C9.94375 22.75 8.48125 22.4547 7.1125 21.8641C5.74375 21.2734 4.55312 20.4719 3.54062 19.4594C2.52812 18.4469 1.72656 17.2563 1.13594 15.8875C0.545312 14.5188 0.25 13.0562 0.25 11.5C0.25 9.94375 0.545312 8.48125 1.13594 7.1125C1.72656 5.74375 2.52812 4.55312 3.54062 3.54062C4.55312 2.52812 5.74375 1.72656 7.1125 1.13594C8.48125 0.545312 9.94375 0.25 11.5 0.25C13.0562 0.25 14.5188 0.545312 15.8875 1.13594C17.2563 1.72656 18.4469 2.52812 19.4594 3.54062C20.4719 4.55312 21.2734 5.74375 21.8641 7.1125C22.4547 8.48125 22.75 9.94375 22.75 11.5C22.75 13.0562 22.4547 14.5188 21.8641 15.8875C21.2734 17.2563 20.4719 18.4469 19.4594 19.4594C18.4469 20.4719 17.2563 21.2734 15.8875 21.8641C14.5188 22.4547 13.0562 22.75 11.5 22.75ZM11.5 18.25C13.375 18.25 14.9688 17.5938 16.2812 16.2812C17.5938 14.9688 18.25 13.375 18.25 11.5C18.25 10.5437 18.0719 9.65781 17.7156 8.84219C17.3594 8.02656 16.8813 7.31875 16.2812 6.71875L14.6781 8.32188C15.0906 8.73438 15.4141 9.2125 15.6484 9.75625C15.8828 10.3 16 10.8813 16 11.5C16 12.7375 15.5594 13.7969 14.6781 14.6781C13.7969 15.5594 12.7375 16 11.5 16C10.2625 16 9.20312 15.5594 8.32188 14.6781C7.44063 13.7969 7 12.7375 7 11.5C7 10.8813 7.11719 10.3 7.35156 9.75625C7.58594 9.2125 7.90938 8.73438 8.32188 8.32188L6.71875 6.71875C6.11875 7.31875 5.64062 8.02656 5.28437 8.84219C4.92812 9.65781 4.75 10.5437 4.75 11.5C4.75 13.375 5.40625 14.9688 6.71875 16.2812C8.03125 17.5938 9.625 18.25 11.5 18.25ZM10.375 11.5H12.625V4.75H10.375V11.5Z" fill="#1C1B1F"/>
</svg>
